<?xml version="1.0" encoding="UTF-8"?>
<svg width="1200" height="1200" viewBox="0 0 1200 1200" fill="none" xmlns="http://www.w3.org/2000/svg">
  <path d="M600 0C268.63 0 0 268.63 0 600C0 931.37 268.63 1200 600 1200C931.37 1200 1200 931.37 1200 600H900C900 776.142 776.142 900 600 900C423.858 900 300 776.142 300 600C300 423.858 423.858 300 600 300V0Z" fill="#176FDB"/>
  <path d="M1200 600C1200 268.63 931.37 0 600 0V300C776.142 300 900 423.858 900 600C900 776.142 776.142 900 600 900V1200C931.37 1200 1200 931.37 1200 600Z" fill="#071B34"/>
</svg> 